# xmcd CD database file
#
# Track frame offsets:
#	150
#	15470
#	29341
#	42787
#	57268
#	71635
#	85353
#	99743
#	119282
#	133259
#	144072
#	159314
#
# Disc length: 2269 seconds
#
# Revision: 0
# Processed by: cddbd v1.5.2PL0 Copyright (c) Steve Scherf et al.
# Submitted via: CDex 1.60beta1-cs1
#
DISCID=9b08db0c
DTITLE=Greg Champion - Strayana
DYEAR=2009
DGENRE=Country
TTITLE0=Bushwalk from the Outback
TTITLE1=Our Greatest River
TTITLE2=Lets Wade Out To The Reef
TTITLE3=Upper Kumbukka
TTITLE4=Those Deadly Koalas
TTITLE5=The Boat
TTITLE6=Arkaroola
TTITLE7=Only a Dog
TTITLE8=On the Road to Port Augusta
TTITLE9=Daintree
TTITLE10=When He Comes
TTITLE11=I was a Mate of Don Bradman
EXTD=YEAR: 2009
EXTT0=
EXTT1=
EXTT2=
EXTT3=
EXTT4=
EXTT5=
EXTT6=
EXTT7=
EXTT8=
EXTT9=
EXTT10=
EXTT11=
PLAYORDER=
